# 3ds Max Wavefront OBJ Exporter v0.97b - (c)2007 guruware
# File Created: 10.03.2020 02:58:47

mtllib ClothesLope_Low.mtl

#
# object Plane004
#

v  9.2420 158.9871 18.0481
v  7.2998 166.8106 16.9636
v  -1.4623 163.5544 17.1821
v  -0.5613 157.2471 18.0703
v  -1.6161 163.7354 17.2991
v  -0.3542 157.2299 18.7091
v  -6.6184 155.9144 18.7141
v  -7.8992 162.8693 17.3662
v  -7.9264 162.4274 17.0423
v  -6.8113 155.8367 18.5515
v  -11.3155 159.0082 17.6001
v  -8.8231 154.6162 18.7735
v  -16.5860 148.6910 15.9932
v  -14.3098 144.2848 17.9465
v  -20.7410 134.1924 14.3601
v  -17.6687 130.3826 15.0059
v  -24.3332 104.4475 10.4119
v  -21.0890 102.9690 11.9336
v  -27.6367 75.6980 10.3281
v  -24.1557 73.2285 11.3242
v  9.2600 158.8748 17.2058
v  -1.2775 157.0858 17.6419
v  -1.8792 163.3504 16.4700
v  7.3192 166.6971 16.1215
v  -0.9289 157.0074 18.1237
v  -1.8425 163.5271 16.5067
v  -6.3054 155.8150 17.9301
v  -7.3718 162.8156 16.8731
v  -6.5192 155.7036 17.7644
v  -7.4588 162.4015 16.5258
v  -8.6173 154.4950 17.9577
v  -11.1837 158.8578 16.7740
v  -13.8779 144.2154 17.2178
v  -16.1873 148.5912 15.2492
v  -17.3936 130.4630 14.2056
v  -20.4365 134.2669 13.5700
v  -20.7350 102.9646 11.1608
v  -23.9745 104.4560 9.6413
v  -23.9264 73.2217 10.5058
v  -27.3997 75.6891 9.5119
v  -1.9204 126.2683 20.1819
v  1.0716 125.4891 20.0047
v  2.1189 131.2688 20.1311
v  -1.4789 131.7052 18.9324
v  -6.2965 127.2780 17.0532
v  -6.3357 131.6664 16.6819
v  -6.6101 127.4305 17.4722
v  -6.5991 131.7300 17.1690
v  -11.0812 127.5586 16.3865
v  -10.9372 131.8663 15.9201
v  -10.9669 126.7076 16.1318
v  -6.5561 126.6499 17.2537
v  -10.9631 131.3660 15.5538
v  -11.0447 127.0708 15.8650
v  -13.3904 129.9883 14.7755
v  -13.0464 125.8882 15.6272
v  -17.8858 123.1860 13.4895
v  -15.4867 121.6813 14.9724
v  -18.8003 119.0580 13.0796
v  -16.3758 117.7842 14.6123
v  -19.4738 110.3915 15.3594
v  -17.1429 109.8387 16.6951
v  -19.2790 100.4454 19.4827
v  -16.7217 100.3706 20.3455
v  -19.1019 91.7305 20.6248
v  -16.5011 91.8413 22.0110
v  -20.6724 79.0053 18.9414
v  -18.4787 77.7723 20.1441
v  -21.5367 73.2992 18.7815
v  -19.4669 71.3562 20.0300
v  2.2837 131.1264 19.2270
v  1.0241 125.5180 19.0763
v  -1.6840 126.1658 19.2883
v  -1.1542 131.4850 18.0892
v  -6.3202 127.1994 16.1269
v  -6.6124 131.5447 15.8024
v  -6.7689 127.4792 16.5571
v  -6.9396 131.6699 16.3056
v  -10.4044 127.6159 15.7512
v  -10.3814 131.7838 15.1791
v  -10.7496 126.6895 15.3870
v  -6.3327 126.6066 16.5025
v  -10.5594 127.0044 15.0745
v  -10.5126 131.2954 14.8344
v  -12.6752 125.7666 14.7832
v  -13.0133 129.8458 13.9374
v  -15.0306 121.6081 14.1653
v  -17.4330 123.1072 12.6810
v  -15.9465 117.6232 13.8032
v  -18.3535 118.9437 12.2720
v  -16.7650 109.5481 15.8966
v  -19.0845 110.1156 14.5612
v  -16.4205 100.1657 19.4898
v  -18.9873 100.2260 18.6273
v  -16.0626 91.7866 21.1927
v  -18.6743 91.6888 19.7999
v  -18.0338 77.7655 19.3275
v  -20.2202 79.0174 18.1289
v  -19.0247 71.3026 19.2136
v  -21.0977 73.2484 17.9632
v  17.7424 118.3500 9.5608
v  17.4672 120.7014 9.1853
v  14.7906 120.9266 12.8523
v  15.3159 118.1999 13.3941
v  20.4671 107.9949 11.4038
v  17.6015 107.7827 14.9578
v  24.7508 89.6552 12.1436
v  22.2744 88.0279 16.0798
v  28.0055 71.9665 11.1394
v  25.5291 70.3391 14.6963
v  29.3427 55.3412 12.4351
v  31.9607 55.9072 9.0000
v  17.5792 118.3020 9.4556
v  15.1571 118.1467 13.2847
v  14.6332 120.8741 12.7406
v  17.3044 120.6593 9.0771
v  20.3151 107.9469 11.2830
v  17.4515 107.7356 14.8341
v  24.5905 89.6214 12.0288
v  22.1141 87.9967 15.9643
v  27.8466 71.9449 11.0199
v  25.3708 70.3178 14.5760
v  31.8039 55.8856 8.8777
v  29.1863 55.3199 12.3123
# 124 vertices

vn 0.6733 -0.3663 0.6422
vn 0.3708 0.7959 0.4787
vn 0.3855 0.8310 0.4011
vn 0.6165 -0.7809 0.1001
vn 0.3613 0.8355 0.4139
vn 0.7473 -0.3501 0.5648
vn -0.1498 -0.5150 0.8440
vn -0.6789 0.6507 0.3401
vn -0.8908 0.4081 -0.1996
vn 0.0378 -0.5778 0.8153
vn -0.6627 0.5295 0.5295
vn 0.2434 -0.2805 0.9285
vn -0.8987 0.3477 0.2673
vn 0.1382 -0.1902 0.9720
vn -0.9051 0.1022 0.4127
vn 0.4163 -0.2181 0.8827
vn -0.9430 0.0897 0.3204
vn 0.3459 -0.0903 0.9339
vn -0.8624 -0.3242 0.3888
vn 0.1848 -0.7499 0.6352
vn 0.6877 -0.5196 -0.5071
vn -0.6894 -0.6571 -0.3047
vn -0.8150 0.4631 -0.3483
vn 0.3918 0.6378 -0.6631
vn 0.1925 -0.9364 -0.2934
vn 0.4815 0.4285 -0.7646
vn 0.4270 -0.8003 -0.4208
vn -0.1407 0.6588 -0.7390
vn 0.4978 -0.6515 -0.5725
vn 0.2555 0.3919 -0.8838
vn 0.6537 -0.5546 -0.5148
vn -0.4743 0.3610 -0.8029
vn 0.9138 -0.3289 -0.2385
vn -0.2645 0.1880 -0.9459
vn 0.8724 -0.0785 -0.4824
vn -0.4241 0.2307 -0.8757
vn 0.9245 -0.0951 -0.3691
vn -0.3289 0.1004 -0.9390
vn 0.4846 -0.7589 -0.4350
vn -0.5294 -0.3362 -0.7789
vn -0.3548 -0.5313 0.7694
vn 0.4741 -0.7032 0.5299
vn 0.5462 0.5485 0.6331
vn -0.1580 0.8487 0.5046
vn -0.3166 -0.8037 0.5037
vn 0.1594 0.9489 0.2722
vn 0.3734 -0.1427 0.9166
vn 0.3349 0.6430 0.6887
vn -0.7962 -0.1795 0.5778
vn -0.6601 0.6839 0.3107
vn -0.7897 -0.5688 0.2299
vn 0.4327 -0.6372 0.6378
vn -0.8663 0.4854 -0.1183
vn 0.2809 -0.5301 0.8001
vn -0.6933 0.6469 0.3177
vn 0.0808 -0.3155 0.9455
vn -0.9047 0.3474 0.2468
vn 0.1556 -0.1855 0.9702
vn -0.9717 0.1462 0.1855
vn 0.2830 0.0486 0.9579
vn -0.9498 0.1239 0.2873
vn 0.3404 0.2932 0.8934
vn -0.8698 0.1111 0.4807
vn 0.4251 0.2472 0.8707
vn -0.9288 0.0575 0.3661
vn 0.3010 0.0157 0.9535
vn -0.9601 0.1038 0.2596
vn 0.2837 -0.1111 0.9524
vn -0.9459 -0.2549 0.2006
vn -0.0168 -0.7413 0.6710
vn 0.7925 0.3861 -0.4721
vn 0.4109 -0.6640 -0.6247
vn -0.0480 -0.8244 -0.5639
vn 0.3208 0.5415 -0.7771
vn -0.1630 -0.6425 -0.7487
vn -0.2056 0.4794 -0.8532
vn -0.0376 -0.2272 -0.9731
vn -0.0327 0.8314 -0.5548
vn 0.5781 -0.1334 -0.8050
vn -0.0329 0.6928 -0.7204
vn -0.4933 -0.4028 -0.7710
vn 0.7530 -0.4793 -0.4508
vn 0.7290 -0.5446 -0.4146
vn 0.3965 0.4610 -0.7939
vn 0.7162 -0.5564 -0.4214
vn -0.1548 0.4555 -0.8767
vn 0.9007 -0.3121 -0.3020
vn -0.2724 0.2436 -0.9309
vn 0.9147 -0.1990 -0.3518
vn -0.2798 -0.0208 -0.9598
vn 0.9201 -0.1605 -0.3573
vn -0.3544 -0.2835 -0.8911
vn 0.9119 -0.0555 -0.4067
vn -0.4762 -0.2306 -0.8486
vn 0.9752 -0.0647 -0.2115
vn -0.2855 -0.0054 -0.9584
vn 0.9439 -0.1176 -0.3085
vn -0.2551 0.1190 -0.9596
vn 0.5103 -0.8051 -0.3022
vn -0.3672 -0.3214 -0.8728
vn 0.9632 0.1421 -0.2282
vn 0.7189 0.6471 -0.2538
vn 0.0075 0.7353 0.6777
vn 0.1487 0.2045 0.9675
vn 0.9702 0.2196 -0.1024
vn 0.0839 0.1209 0.9891
vn 0.9665 0.2078 -0.1507
vn 0.1738 0.0213 0.9846
vn 0.9683 0.2155 -0.1260
vn 0.1390 -0.0806 0.9870
vn 0.2372 -0.6097 0.7563
vn 0.9053 -0.3956 -0.1549
vn -0.2174 -0.1996 -0.9555
vn -0.9649 -0.1682 0.2016
vn -0.9012 0.4321 0.0330
vn -0.2179 0.4122 -0.8847
vn -0.1049 -0.1237 -0.9868
vn -0.9691 -0.2080 0.1328
vn -0.1636 -0.0303 -0.9861
vn -0.9594 -0.1992 0.1995
vn -0.1729 0.0604 -0.9831
vn -0.9623 -0.2291 0.1466
vn 0.0103 -0.5192 -0.8546
vn -0.6779 -0.7342 0.0384
# 124 vertex normals

vt 0.0284 0.6587 0.0000
vt 0.0287 0.5994 0.0000
vt 0.1230 0.5999 0.0000
vt 0.1227 0.6591 0.0000
vt 0.2144 0.6004 0.0000
vt 0.2141 0.6596 0.0000
vt 0.2456 0.6598 0.0000
vt 0.2459 0.6005 0.0000
vt 0.2772 0.6007 0.0000
vt 0.2769 0.6599 0.0000
vt 0.2910 0.6008 0.0000
vt 0.2907 0.6600 0.0000
vt 0.3694 0.6012 0.0000
vt 0.3691 0.6604 0.0000
vt 0.4939 0.6018 0.0000
vt 0.4936 0.6611 0.0000
vt 0.6973 0.6029 0.0000
vt 0.6970 0.6621 0.0000
vt 0.9784 0.6043 0.0000
vt 0.9781 0.6636 0.0000
vt 0.6818 0.2565 0.0000
vt 0.6537 0.2119 0.0000
vt 0.6797 0.1851 0.0000
vt 0.7120 0.2393 0.0000
vt 0.6503 0.2129 0.0000
vt 0.6802 0.1834 0.0000
vt 0.6204 0.1781 0.0000
vt 0.6585 0.1490 0.0000
vt 0.6192 0.1763 0.0000
vt 0.6548 0.1488 0.0000
vt 0.6023 0.1677 0.0000
vt 0.6249 0.1336 0.0000
vt 0.5125 0.1417 0.0000
vt 0.5422 0.1164 0.0000
vt 0.4070 0.1110 0.0000
vt 0.4348 0.0890 0.0000
vt 0.2101 0.0741 0.0000
vt 0.2216 0.0499 0.0000
vt 0.0580 0.0434 0.0000
vt 0.0649 0.0252 0.0000
vt 0.6521 0.2160 0.0000
vt 0.6807 0.2634 0.0000
vt 0.7183 0.2405 0.0000
vt 0.6867 0.1839 0.0000
vt 0.6494 0.2192 0.0000
vt 0.6870 0.1817 0.0000
vt 0.6157 0.1815 0.0000
vt 0.6594 0.1437 0.0000
vt 0.6152 0.1801 0.0000
vt 0.6557 0.1446 0.0000
vt 0.5996 0.1736 0.0000
vt 0.6274 0.1282 0.0000
vt 0.5108 0.1481 0.0000
vt 0.5439 0.1104 0.0000
vt 0.4056 0.1170 0.0000
vt 0.4358 0.0829 0.0000
vt 0.2089 0.0804 0.0000
vt 0.2226 0.0442 0.0000
vt 0.0619 0.0202 0.0000
vt 0.0507 0.0464 0.0000
vt 0.8755 0.8404 0.0000
vt 0.9103 0.8410 0.0000
vt 0.9095 0.8877 0.0000
vt 0.8747 0.8872 0.0000
vt 0.8448 0.8399 0.0000
vt 0.8440 0.8867 0.0000
vt 0.8179 0.8395 0.0000
vt 0.8172 0.8862 0.0000
vt 0.7907 0.8390 0.0000
vt 0.7899 0.8858 0.0000
vt 0.6099 0.3446 0.0000
vt 0.6046 0.3195 0.0000
vt 0.6091 0.3228 0.0000
vt 0.6129 0.3373 0.0000
vt 0.7745 0.8855 0.0000
vt 0.7753 0.8388 0.0000
vt 0.7339 0.8849 0.0000
vt 0.7346 0.8381 0.0000
vt 0.6700 0.8839 0.0000
vt 0.6707 0.8371 0.0000
vt 0.6049 0.8828 0.0000
vt 0.6056 0.8361 0.0000
vt 0.5052 0.8812 0.0000
vt 0.5060 0.8344 0.0000
vt 0.4039 0.8796 0.0000
vt 0.4046 0.8328 0.0000
vt 0.2835 0.8776 0.0000
vt 0.2842 0.8309 0.0000
vt 0.1823 0.8760 0.0000
vt 0.1831 0.8292 0.0000
vt 0.1222 0.8750 0.0000
vt 0.1229 0.8283 0.0000
vt 0.6842 0.4491 0.0000
vt 0.6313 0.4611 0.0000
vt 0.6081 0.4263 0.0000
vt 0.6876 0.4099 0.0000
vt 0.6291 0.3512 0.0000
vt 0.6699 0.3387 0.0000
vt 0.6270 0.3429 0.0000
vt 0.6725 0.3336 0.0000
vt 0.6143 0.3149 0.0000
vt 0.6560 0.3000 0.0000
vt 0.6119 0.3229 0.0000
vt 0.6159 0.3353 0.0000
vt 0.6093 0.3072 0.0000
vt 0.6508 0.2982 0.0000
vt 0.5907 0.2940 0.0000
vt 0.6315 0.2771 0.0000
vt 0.5406 0.2677 0.0000
vt 0.5573 0.2376 0.0000
vt 0.4968 0.2491 0.0000
vt 0.5150 0.2254 0.0000
vt 0.4154 0.2256 0.0000
vt 0.4302 0.2029 0.0000
vt 0.3117 0.2035 0.0000
vt 0.3214 0.1769 0.0000
vt 0.2235 0.1865 0.0000
vt 0.2296 0.1557 0.0000
vt 0.0868 0.1379 0.0000
vt 0.1026 0.1150 0.0000
vt 0.0486 0.1190 0.0000
vt 0.0584 0.1071 0.0000
vt 0.6247 0.4762 0.0000
vt 0.5931 0.4293 0.0000
vt 0.6932 0.4569 0.0000
vt 0.7008 0.4091 0.0000
vt 0.6170 0.3505 0.0000
vt 0.6787 0.3395 0.0000
vt 0.6829 0.3358 0.0000
vt 0.6621 0.2933 0.0000
vt 0.6046 0.3133 0.0000
vt 0.6562 0.2919 0.0000
vt 0.5824 0.3023 0.0000
vt 0.6345 0.2689 0.0000
vt 0.5328 0.2767 0.0000
vt 0.5579 0.2285 0.0000
vt 0.4937 0.2579 0.0000
vt 0.5174 0.2164 0.0000
vt 0.4134 0.2349 0.0000
vt 0.4324 0.1940 0.0000
vt 0.3095 0.2131 0.0000
vt 0.3236 0.1672 0.0000
vt 0.2210 0.1957 0.0000
vt 0.2323 0.1464 0.0000
vt 0.0828 0.1467 0.0000
vt 0.1046 0.1061 0.0000
vt 0.0539 0.0989 0.0000
vt 0.0409 0.1210 0.0000
vt 0.2360 0.7627 0.0000
vt 0.2102 0.7629 0.0000
vt 0.2099 0.7148 0.0000
vt 0.2357 0.7147 0.0000
vt 0.3099 0.7623 0.0000
vt 0.3096 0.7142 0.0000
vt 0.4698 0.7613 0.0000
vt 0.4695 0.7133 0.0000
vt 0.6768 0.7601 0.0000
vt 0.6765 0.7121 0.0000
vt 0.8576 0.7110 0.0000
vt 0.8579 0.7590 0.0000
vt 0.5061 0.3935 0.0000
vt 0.5201 0.3587 0.0000
vt 0.5341 0.3734 0.0000
vt 0.5244 0.3972 0.0000
vt 0.4079 0.3487 0.0000
vt 0.4245 0.3144 0.0000
vt 0.2818 0.2926 0.0000
vt 0.2890 0.2561 0.0000
vt 0.1529 0.2399 0.0000
vt 0.1615 0.2040 0.0000
vt 0.0618 0.2007 0.0000
vt 0.0722 0.1786 0.0000
vt 0.5055 0.3954 0.0000
vt 0.5251 0.3987 0.0000
vt 0.5359 0.3732 0.0000
vt 0.5213 0.3571 0.0000
vt 0.4070 0.3506 0.0000
vt 0.4253 0.3124 0.0000
vt 0.2809 0.2948 0.0000
vt 0.2900 0.2538 0.0000
vt 0.1520 0.2421 0.0000
vt 0.1622 0.2020 0.0000
vt 0.0600 0.2016 0.0000
vt 0.0713 0.1767 0.0000
# 184 texture coords

g Plane004
usemtl wire_145028177
s 1
f 1/1/1 2/2/2 3/3/3 4/4/4 
f 4/4/4 3/3/3 5/5/5 6/6/6 
f 7/7/7 6/6/6 5/5/5 8/8/8 
f 7/7/7 8/8/8 9/9/9 10/10/10 
f 11/11/11 12/12/12 10/10/10 9/9/9 
f 13/13/13 14/14/14 12/12/12 11/11/11 
f 15/15/15 16/16/16 14/14/14 13/13/13 
f 17/17/17 18/18/18 16/16/16 15/15/15 
f 19/19/19 20/20/20 18/18/18 17/17/17 
f 21/21/21 22/22/22 23/23/23 24/24/24 
f 22/22/22 25/25/25 26/26/26 23/23/23 
f 25/25/25 27/27/27 28/28/28 26/26/26 
f 27/27/27 29/29/29 30/30/30 28/28/28 
f 29/29/29 31/31/31 32/32/32 30/30/30 
f 31/31/31 33/33/33 34/34/34 32/32/32 
f 33/33/33 35/35/35 36/36/36 34/34/34 
f 35/35/35 37/37/37 38/38/38 36/36/36 
f 37/37/37 39/39/39 40/40/40 38/38/38 
f 4/41/4 22/22/22 21/21/21 1/42/1 
f 1/42/1 21/21/21 24/24/24 2/43/2 
f 3/44/3 2/43/2 24/24/24 23/23/23 
f 4/41/4 6/45/6 25/25/25 22/22/22 
f 3/44/3 23/23/23 26/26/26 5/46/5 
f 7/47/7 27/27/27 25/25/25 6/45/6 
f 5/46/5 26/26/26 28/28/28 8/48/8 
f 10/49/10 29/29/29 27/27/27 7/47/7 
f 9/50/9 8/48/8 28/28/28 30/30/30 
f 10/49/10 12/51/12 31/31/31 29/29/29 
f 9/50/9 30/30/30 32/32/32 11/52/11 
f 14/53/14 33/33/33 31/31/31 12/51/12 
f 13/54/13 11/52/11 32/32/32 34/34/34 
f 16/55/16 35/35/35 33/33/33 14/53/14 
f 13/54/13 34/34/34 36/36/36 15/56/15 
f 18/57/18 37/37/37 35/35/35 16/55/16 
f 15/56/15 36/36/36 38/38/38 17/58/17 
f 19/59/19 40/40/40 39/39/39 20/60/20 
f 20/60/20 39/39/39 37/37/37 18/57/18 
f 17/58/17 38/38/38 40/40/40 19/59/19 
f 41/61/41 42/62/42 43/63/43 44/64/44 
f 45/65/45 41/61/41 44/64/44 46/66/46 
f 47/67/47 45/65/45 46/66/46 48/68/48 
f 49/69/49 47/67/47 48/68/48 50/70/50 
f 47/71/47 49/72/49 51/73/51 52/74/52 
f 53/75/53 54/76/54 49/69/49 50/70/50 
f 54/76/54 53/75/53 55/77/55 56/78/56 
f 57/79/57 58/80/58 56/78/56 55/77/55 
f 59/81/59 60/82/60 58/80/58 57/79/57 
f 61/83/61 62/84/62 60/82/60 59/81/59 
f 63/85/63 64/86/64 62/84/62 61/83/61 
f 65/87/65 66/88/66 64/86/64 63/85/63 
f 66/88/66 65/87/65 67/89/67 68/90/68 
f 69/91/69 70/92/70 68/90/68 67/89/67 
f 71/93/71 72/94/72 73/95/73 74/96/74 
f 75/97/75 76/98/76 74/96/74 73/95/73 
f 76/98/76 75/97/75 77/99/77 78/100/78 
f 79/101/79 80/102/80 78/100/78 77/99/77 
f 81/103/81 79/101/79 77/99/77 82/104/82 
f 79/101/79 83/105/83 84/106/84 80/102/80 
f 83/105/83 85/107/85 86/108/86 84/106/84 
f 85/107/85 87/109/87 88/110/88 86/108/86 
f 87/109/87 89/111/89 90/112/90 88/110/88 
f 89/111/89 91/113/91 92/114/92 90/112/90 
f 91/113/91 93/115/93 94/116/94 92/114/92 
f 93/115/93 95/117/95 96/118/96 94/116/94 
f 95/117/95 97/119/97 98/120/98 96/118/96 
f 97/119/97 99/121/99 100/122/100 98/120/98 
f 42/123/42 41/124/41 73/95/73 72/94/72 
f 42/123/42 72/94/72 71/93/71 43/125/43 
f 44/126/44 43/125/43 71/93/71 74/96/74 
f 45/127/45 75/97/75 73/95/73 41/124/41 
f 46/128/46 44/126/44 74/96/74 76/98/76 
f 45/127/45 47/71/47 77/99/77 75/97/75 
f 46/128/46 76/98/76 78/100/78 48/129/48 
f 50/130/50 48/129/48 78/100/78 80/102/80 
f 51/73/51 49/72/49 79/101/79 81/103/81 
f 52/74/52 51/73/51 81/103/81 82/104/82 
f 52/74/52 82/104/82 77/99/77 47/71/47 
f 54/131/54 83/105/83 79/101/79 49/72/49 
f 53/132/53 50/130/50 80/102/80 84/106/84 
f 54/131/54 56/133/56 85/107/85 83/105/83 
f 53/132/53 84/106/84 86/108/86 55/134/55 
f 58/135/58 87/109/87 85/107/85 56/133/56 
f 55/134/55 86/108/86 88/110/88 57/136/57 
f 60/137/60 89/111/89 87/109/87 58/135/58 
f 59/138/59 57/136/57 88/110/88 90/112/90 
f 60/137/60 62/139/62 91/113/91 89/111/89 
f 59/138/59 90/112/90 92/114/92 61/140/61 
f 62/139/62 64/141/64 93/115/93 91/113/91 
f 61/140/61 92/114/92 94/116/94 63/142/63 
f 64/141/64 66/143/66 95/117/95 93/115/93 
f 65/144/65 63/142/63 94/116/94 96/118/96 
f 68/145/68 97/119/97 95/117/95 66/143/66 
f 67/146/67 65/144/65 96/118/96 98/120/98 
f 69/147/69 100/122/100 99/121/99 70/148/70 
f 68/145/68 70/148/70 99/121/99 97/119/97 
f 67/146/67 98/120/98 100/122/100 69/147/69 
f 101/149/101 102/150/102 103/151/103 104/152/104 
f 105/153/105 101/149/101 104/152/104 106/154/106 
f 107/155/107 105/153/105 106/154/106 108/156/108 
f 109/157/109 107/155/107 108/156/108 110/158/110 
f 109/157/109 110/158/110 111/159/111 112/160/112 
f 113/161/113 114/162/114 115/163/115 116/164/116 
f 114/162/114 113/161/113 117/165/117 118/166/118 
f 119/167/119 120/168/120 118/166/118 117/165/117 
f 120/168/120 119/167/119 121/169/121 122/170/122 
f 121/169/121 123/171/123 124/172/124 122/170/122 
f 101/173/101 113/161/113 116/164/116 102/174/102 
f 102/174/102 116/164/116 115/163/115 103/175/103 
f 103/175/103 115/163/115 114/162/114 104/176/104 
f 105/177/105 117/165/117 113/161/113 101/173/101 
f 104/176/104 114/162/114 118/166/118 106/178/106 
f 107/179/107 119/167/119 117/165/117 105/177/105 
f 106/178/106 118/166/118 120/168/120 108/180/108 
f 109/181/109 121/169/121 119/167/119 107/179/107 
f 108/180/108 120/168/120 122/170/122 110/182/110 
f 112/183/112 123/171/123 121/169/121 109/181/109 
f 110/182/110 122/170/122 124/172/124 111/184/111 
f 111/184/111 124/172/124 123/171/123 112/183/112 
# 118 polygons

