# 3ds Max Wavefront OBJ Exporter v0.97b - (c)2007 guruware
# File Created: 05.04.2020 16:46:33

mtllib Mangun_Low.mtl

#
# object Mangun_Low
#

v  1.6315 204.9574 0.5713
v  1.6380 206.0551 0.4550
v  1.8687 206.1232 1.4224
v  1.8622 205.0255 1.5386
v  0.9993 204.9105 -0.1379
v  1.0059 206.0082 -0.2541
v  0.1350 204.8972 -0.3988
v  0.1415 205.9949 -0.5150
v  -0.7233 206.0190 -0.2580
v  -0.7299 204.9212 -0.1417
v  -1.3569 206.0738 0.4484
v  -1.3635 204.9761 0.5646
v  -1.5896 206.1447 1.4147
v  -1.5961 205.0470 1.5309
v  -1.3588 206.2128 2.3820
v  -1.3654 205.1151 2.4982
v  -0.7267 206.2598 3.0911
v  -0.7333 205.1621 3.2074
v  0.1376 206.2730 3.3521
v  0.1311 205.1753 3.4684
v  0.9960 205.1513 3.2112
v  1.0025 206.2490 3.0950
v  1.6296 205.0965 2.5049
v  1.6361 206.1942 2.3886
v  1.8753 207.2209 1.3062
v  1.6446 207.1528 0.3388
v  1.0124 207.1059 -0.3704
v  0.1481 207.0927 -0.6314
v  -0.7168 207.1167 -0.3742
v  -1.3504 207.1715 0.3321
v  -1.5830 207.2425 1.2984
v  -1.3523 207.3105 2.2657
v  -0.7202 207.3575 2.9749
v  0.1442 207.3707 3.2359
v  1.0090 207.3467 2.9787
v  1.6427 207.2919 2.2724
v  1.5005 207.1604 0.4315
v  1.7089 207.2220 1.3057
v  0.9290 207.1180 -0.2095
v  0.1479 207.1060 -0.4453
v  -0.6337 207.1277 -0.2129
v  -1.2064 207.1773 0.4254
v  -1.4167 207.2414 1.2988
v  -1.2082 207.3029 2.1731
v  -0.6368 207.3454 2.8140
v  0.1444 207.3573 3.0499
v  0.9261 207.3356 2.8174
v  1.4987 207.2861 2.1791
v  1.6926 205.0266 1.5382
v  1.4845 204.9652 0.6658
v  0.9144 204.9228 0.0262
v  0.1348 204.9109 -0.2092
v  -0.6452 204.9325 0.0227
v  -1.2167 204.9820 0.6598
v  -1.4265 205.0460 1.5313
v  -1.2185 205.1074 2.4038
v  -0.6483 205.1497 3.0434
v  0.1313 205.1617 3.2788
v  0.9113 205.1400 3.0468
v  1.4829 205.0906 2.4098
v  1.5005 206.6870 0.4315
v  1.7089 206.7486 1.3057
v  0.9290 206.6446 -0.2095
v  0.1479 206.6326 -0.4453
v  -0.6337 206.6543 -0.2129
v  -1.2064 206.7039 0.4254
v  -1.4167 206.7680 1.2988
v  -1.2082 206.8296 2.1731
v  -0.6368 206.8720 2.8140
v  0.1444 206.8840 3.0499
v  0.9261 206.8623 2.8175
v  1.4987 206.8127 2.1791
v  1.6926 205.3393 1.5382
v  1.4845 205.2779 0.6658
v  0.9144 205.2356 0.0262
v  0.1348 205.2236 -0.2092
v  -0.6452 205.2453 0.0227
v  -1.2167 205.2947 0.6598
v  -1.4265 205.3587 1.5313
v  -1.2185 205.4201 2.4038
v  -0.6483 205.4625 3.0434
v  0.1313 205.4744 3.2788
v  0.9113 205.4528 3.0468
v  1.4829 205.4033 2.4098
v  -7.4093 196.0135 9.0436
v  -4.4840 196.3108 12.0936
v  -3.9519 200.7295 10.3941
v  -6.7860 200.4960 7.8908
v  -0.8103 200.6826 11.7109
v  -1.1225 196.3794 13.5114
v  2.4449 196.3518 13.1706
v  2.6130 200.6431 11.1788
v  6.0628 196.1362 10.6671
v  5.6470 200.5720 9.0631
v  8.3465 195.4731 6.3466
v  7.8268 200.0798 5.5563
v  8.8791 199.2471 0.6783
v  9.3963 194.5747 1.0559
v  8.0787 198.4247 -4.1128
v  8.7171 193.8417 -3.8008
v  4.9210 197.6614 -7.6088
v  5.5579 193.1471 -7.3521
v  1.5712 192.7037 -8.8875
v  0.8951 197.1893 -9.0439
v  -3.0071 192.8169 -8.5584
v  -2.9882 197.3845 -8.5458
v  -7.8034 193.5490 -5.2456
v  -7.0123 198.0678 -5.7710
v  -8.8565 199.0161 -0.6785
v  -9.4227 194.4133 0.1167
v  -8.3159 199.8789 4.0920
v  -8.7378 195.2317 4.9777
v  -3.6673 200.6261 9.7747
v  -6.2978 200.4094 7.4511
v  -0.7514 200.5826 10.9969
v  2.4259 200.5459 10.5031
v  5.2420 200.4800 8.5393
v  7.2652 200.0232 5.2844
v  8.2420 199.2502 0.7568
v  7.4990 198.4869 -3.6900
v  4.5683 197.7784 -6.9348
v  0.8315 197.3403 -8.2669
v  -2.7728 197.5215 -7.8045
v  -6.5077 198.1557 -5.2292
v  -8.2195 199.0359 -0.5025
v  -7.7178 199.8367 3.9253
v  -3.6673 199.8620 9.7747
v  -6.2978 199.6452 7.4511
v  -0.7514 199.8185 10.9969
v  2.4259 199.7818 10.5031
v  5.2420 199.7158 8.5393
v  7.2652 199.2590 5.2844
v  8.2420 198.4861 0.7568
v  7.4990 197.7227 -3.6900
v  4.5683 197.0143 -6.9348
v  0.8315 196.5761 -8.2669
v  -2.7728 196.7573 -7.8045
v  -6.5077 197.3915 -5.2292
v  -8.2195 198.2717 -0.5025
v  -7.7178 199.0725 3.9253
v  -6.8765 195.9250 8.5846
v  -4.1614 196.2009 11.4153
v  -1.0414 196.2646 12.7313
v  2.2698 196.2390 12.4151
v  5.6279 196.0389 10.0913
v  7.7474 195.4235 6.0812
v  8.7218 194.5896 1.1706
v  8.0914 193.9092 -3.3372
v  5.1592 193.2645 -6.6334
v  1.4589 192.8530 -8.0585
v  -2.7905 192.9580 -7.7531
v  -7.2422 193.6375 -4.6781
v  -8.7452 194.4398 0.2989
v  -8.1095 195.1994 4.8107
v  -6.8765 196.5592 8.5846
v  -4.1614 196.8351 11.4153
v  -1.0414 196.8988 12.7313
v  2.2698 196.8732 12.4151
v  5.6279 196.6731 10.0913
v  7.7474 196.0576 6.0812
v  8.7218 195.2237 1.1706
v  8.0914 194.5434 -3.3372
v  5.1592 193.8987 -6.6334
v  1.4589 193.4872 -8.0585
v  -2.7905 193.5922 -7.7531
v  -7.2422 194.2717 -4.6781
v  -8.7452 195.0739 0.2989
v  -8.1095 195.8335 4.8107
# 168 vertices

vn 0.6682 -0.6893 -0.2799
vn 0.8967 -0.0534 -0.4393
vn 1.0000 -0.0056 0.0014
vn 0.7464 -0.6635 0.0510
vn 0.4173 -0.7058 -0.5725
vn 0.5585 -0.0936 -0.8242
vn -0.0028 -0.7099 -0.7043
vn 0.0016 -0.1090 -0.9940
vn -0.5562 -0.0874 -0.8264
vn -0.4237 -0.7006 -0.5741
vn -0.8959 -0.0433 -0.4421
vn -0.6757 -0.6811 -0.2819
vn -1.0000 0.0056 -0.0014
vn -0.7545 -0.6544 0.0489
vn -0.8967 0.0534 0.4393
vn -0.6831 -0.6218 0.3831
vn -0.5585 0.0936 0.8242
vn -0.4323 -0.5886 0.6831
vn -0.0016 0.1090 0.9940
vn -0.0054 -0.5742 0.8187
vn 0.4223 -0.5936 0.6851
vn 0.5562 0.0874 0.8264
vn 0.6743 -0.6299 0.3854
vn 0.8959 0.0433 0.4421
vn 0.7545 0.6544 -0.0489
vn 0.6831 0.6218 -0.3831
vn 0.4323 0.5886 -0.6831
vn 0.0054 0.5742 -0.8187
vn -0.4223 0.5936 -0.6851
vn -0.6743 0.6299 -0.3854
vn -0.7464 0.6635 -0.0510
vn -0.6682 0.6893 0.2799
vn -0.4173 0.7057 0.5725
vn 0.0028 0.7099 0.7043
vn 0.4237 0.7006 0.5741
vn 0.6757 0.6811 0.2819
vn -0.5882 0.7745 0.2326
vn -0.6472 0.7600 -0.0597
vn -0.3640 0.7942 0.4865
vn 0.0046 0.8042 0.5943
vn 0.3716 0.7917 0.4848
vn 0.5936 0.7706 0.2319
vn 0.6523 0.7557 -0.0581
vn 0.5686 0.7506 -0.3367
vn 0.3423 0.7545 -0.5600
vn 0.0071 0.7595 -0.6505
vn -0.3307 0.7567 -0.5640
vn -0.5613 0.7542 -0.3407
vn -0.6523 -0.7557 0.0581
vn -0.5686 -0.7506 0.3367
vn -0.3423 -0.7545 0.5600
vn -0.0071 -0.7595 0.6505
vn 0.3307 -0.7567 0.5640
vn 0.5613 -0.7542 0.3407
vn 0.6472 -0.7600 0.0597
vn 0.5882 -0.7745 -0.2326
vn 0.3640 -0.7942 -0.4865
vn -0.0046 -0.8042 -0.5944
vn -0.3716 -0.7917 -0.4848
vn -0.5936 -0.7706 -0.2319
vn -0.8927 0.0000 0.4507
vn -1.0000 0.0000 0.0087
vn -0.5535 0.0000 0.8329
vn -0.0035 0.0000 1.0000
vn 0.5487 0.0000 0.8360
vn 0.8911 0.0000 0.4538
vn 0.9999 0.0000 0.0107
vn 0.9005 0.0000 -0.4348
vn 0.5632 0.0000 -0.8263
vn 0.0010 0.0000 -1.0000
vn -0.5617 0.0000 -0.8274
vn -0.8998 0.0000 -0.4363
vn -0.9999 0.0000 -0.0107
vn -0.9005 0.0000 0.4348
vn -0.5632 0.0000 0.8263
vn -0.0010 0.0000 1.0000
vn 0.5617 0.0000 0.8274
vn 0.8998 0.0000 0.4363
vn 1.0000 0.0000 -0.0087
vn 0.8927 0.0000 -0.4507
vn 0.5535 0.0000 -0.8329
vn 0.0035 0.0000 -1.0000
vn -0.5487 0.0000 -0.8360
vn -0.8911 0.0000 -0.4538
vn -0.6995 -0.5066 0.5041
vn -0.4978 -0.4553 0.7382
vn -0.3380 0.8343 0.4355
vn -0.5599 0.7831 0.2706
vn -0.0726 0.8276 0.5565
vn -0.1415 -0.4334 0.8900
vn 0.3003 -0.4381 0.8473
vn 0.2513 0.8276 0.5019
vn 0.6301 -0.4827 0.6082
vn 0.4956 0.8009 0.3362
vn 0.7373 -0.5785 0.3489
vn 0.6495 0.7486 0.1331
vn 0.7009 0.7070 -0.0945
vn 0.7758 -0.6216 0.1080
vn 0.6349 0.6609 -0.4002
vn 0.7474 -0.6239 -0.2284
vn 0.3833 0.6161 -0.6881
vn 0.4998 -0.6831 -0.5326
vn 0.1420 -0.7315 -0.6668
vn 0.0731 0.5712 -0.8175
vn -0.2958 -0.7108 -0.6381
vn -0.2579 0.5907 -0.7645
vn -0.6867 -0.6353 -0.3532
vn -0.5648 0.6285 -0.5348
vn -0.7015 0.6852 -0.1957
vn -0.7854 -0.6182 0.0324
vn -0.6714 0.7407 0.0248
vn -0.7393 -0.6195 0.2640
vn 0.3797 0.6989 -0.6061
vn 0.5221 0.7214 -0.4550
vn 0.1003 0.7237 -0.6828
vn -0.2645 0.7124 -0.6500
vn -0.4798 0.7155 -0.5078
vn -0.6069 0.7136 -0.3499
vn -0.6669 0.7303 -0.1478
vn -0.6164 0.7783 0.1196
vn -0.4422 0.8001 0.4054
vn -0.0953 0.8169 0.5688
vn 0.3016 0.8109 0.5015
vn 0.5604 0.7964 0.2272
vn 0.6632 0.7448 -0.0739
vn 0.6488 0.7072 -0.2809
vn 0.5562 0.0000 -0.8310
vn 0.8398 0.0000 -0.5429
vn 0.1251 0.0000 -0.9921
vn -0.3929 0.0000 -0.9196
vn -0.7507 0.0000 -0.6606
vn -0.9395 0.0000 -0.3426
vn -1.0000 0.0000 -0.0037
vn -0.8968 0.0000 0.4424
vn -0.5584 0.0000 0.8296
vn -0.1081 0.0000 0.9941
vn 0.3604 0.0000 0.9328
vn 0.7877 0.0000 0.6161
vn 0.9909 0.0000 0.1344
vn 0.9757 0.0000 -0.2191
vn 0.5962 -0.7760 -0.2060
vn 0.3857 -0.7993 -0.4608
vn 0.0962 -0.8182 -0.5668
vn -0.2316 -0.8169 -0.5283
vn -0.5183 -0.7921 -0.3224
vn -0.6565 -0.7487 -0.0924
vn -0.6648 -0.7392 0.1080
vn -0.5483 -0.7458 0.3783
vn -0.3248 -0.7154 0.6187
vn -0.0766 -0.7092 0.7008
vn 0.1785 -0.7208 0.6698
vn 0.4639 -0.7487 0.4736
vn 0.6444 -0.7435 0.1789
vn 0.6821 -0.7311 -0.0156
vn 0.8611 0.0000 -0.5084
vn 0.5841 0.0000 -0.8116
vn 0.1588 0.0000 -0.9873
vn -0.3553 0.0000 -0.9348
vn -0.7567 0.0000 -0.6538
vn -0.9442 0.0000 -0.3292
vn -0.9991 0.0000 -0.0421
vn -0.9262 0.0000 0.3771
vn -0.6064 0.0000 0.7952
vn -0.1615 0.0000 0.9869
vn 0.8382 0.0000 0.5453
vn 0.9986 0.0000 0.0521
vn 0.9751 0.0000 -0.2216
# 167 vertex normals

vt 0.8001 0.6304 0.0000
vt 0.7764 0.6022 0.0000
vt 0.8205 0.5652 0.0000
vt 0.8442 0.5934 0.0000
vt 0.7573 0.6663 0.0000
vt 0.7337 0.6381 0.0000
vt 0.7173 0.6998 0.0000
vt 0.6937 0.6716 0.0000
vt 0.6553 0.7038 0.0000
vt 0.6790 0.7320 0.0000
vt 0.6160 0.7368 0.0000
vt 0.6396 0.7650 0.0000
vt 0.5747 0.7715 0.0000
vt 0.5983 0.7997 0.0000
vt 0.5327 0.8067 0.0000
vt 0.5564 0.8349 0.0000
vt 0.4933 0.8398 0.0000
vt 0.5170 0.8680 0.0000
vt 0.4569 0.8703 0.0000
vt 0.4805 0.8985 0.0000
vt 0.4466 0.9270 0.0000
vt 0.4230 0.8988 0.0000
vt 0.8855 0.5588 0.0000
vt 0.8618 0.5306 0.0000
vt 0.9010 0.4977 0.0000
vt 0.9247 0.5258 0.0000
vt 0.7817 0.5190 0.0000
vt 0.7376 0.5560 0.0000
vt 0.6949 0.5919 0.0000
vt 0.6549 0.6254 0.0000
vt 0.6165 0.6576 0.0000
vt 0.5772 0.6906 0.0000
vt 0.5359 0.7253 0.0000
vt 0.4939 0.7605 0.0000
vt 0.4545 0.7936 0.0000
vt 0.4181 0.8241 0.0000
vt 0.3842 0.8526 0.0000
vt 0.8622 0.4515 0.0000
vt 0.8230 0.4844 0.0000
vt 0.7208 0.5360 0.0000
vt 0.7649 0.4990 0.0000
vt 0.6781 0.5718 0.0000
vt 0.6381 0.6054 0.0000
vt 0.5997 0.6376 0.0000
vt 0.5604 0.6706 0.0000
vt 0.5191 0.7052 0.0000
vt 0.4771 0.7405 0.0000
vt 0.4377 0.7735 0.0000
vt 0.4013 0.8041 0.0000
vt 0.3674 0.8325 0.0000
vt 0.8062 0.4643 0.0000
vt 0.8454 0.4314 0.0000
vt 0.8514 0.6020 0.0000
vt 0.8073 0.6390 0.0000
vt 0.7645 0.6749 0.0000
vt 0.7245 0.7084 0.0000
vt 0.6862 0.7406 0.0000
vt 0.6468 0.7736 0.0000
vt 0.6055 0.8083 0.0000
vt 0.5636 0.8435 0.0000
vt 0.5242 0.8765 0.0000
vt 0.4877 0.9071 0.0000
vt 0.4538 0.9356 0.0000
vt 0.9319 0.5344 0.0000
vt 0.8927 0.5673 0.0000
vt 0.3914 0.6069 0.0000
vt 0.4426 0.5617 0.0000
vt 0.4738 0.5971 0.0000
vt 0.4226 0.6423 0.0000
vt 0.5222 0.5544 0.0000
vt 0.4909 0.5190 0.0000
vt 0.5418 0.4741 0.0000
vt 0.5731 0.5094 0.0000
vt 0.6024 0.4206 0.0000
vt 0.6336 0.4559 0.0000
vt 0.6727 0.3585 0.0000
vt 0.7039 0.3939 0.0000
vt 0.7767 0.3296 0.0000
vt 0.7455 0.2943 0.0000
vt 0.8426 0.2714 0.0000
vt 0.8114 0.2361 0.0000
vt 0.9020 0.2190 0.0000
vt 0.8708 0.1836 0.0000
vt 0.9256 0.1352 0.0000
vt 0.9568 0.1706 0.0000
vt 0.1447 0.8247 0.0000
vt 0.1760 0.8601 0.0000
vt 0.1260 0.9041 0.0000
vt 0.0948 0.8688 0.0000
vt 0.2123 0.7651 0.0000
vt 0.2435 0.8004 0.0000
vt 0.3089 0.7427 0.0000
vt 0.2776 0.7074 0.0000
vt 0.3685 0.6901 0.0000
vt 0.3372 0.6547 0.0000
vt 0.4828 0.6073 0.0000
vt 0.4316 0.6525 0.0000
vt 0.5312 0.5646 0.0000
vt 0.5821 0.5197 0.0000
vt 0.6427 0.4662 0.0000
vt 0.7130 0.4041 0.0000
vt 0.7857 0.3398 0.0000
vt 0.8516 0.2817 0.0000
vt 0.9110 0.2292 0.0000
vt 0.9659 0.1808 0.0000
vt 0.1850 0.8703 0.0000
vt 0.1351 0.9144 0.0000
vt 0.2525 0.8107 0.0000
vt 0.3179 0.7529 0.0000
vt 0.3775 0.7003 0.0000
vt 0.4921 0.6178 0.0000
vt 0.4409 0.6630 0.0000
vt 0.5405 0.5751 0.0000
vt 0.5914 0.5302 0.0000
vt 0.6520 0.4767 0.0000
vt 0.7222 0.4146 0.0000
vt 0.7950 0.3504 0.0000
vt 0.8609 0.2922 0.0000
vt 0.9203 0.2397 0.0000
vt 0.9752 0.1913 0.0000
vt 0.1943 0.8808 0.0000
vt 0.1444 0.9249 0.0000
vt 0.2618 0.8212 0.0000
vt 0.3272 0.7635 0.0000
vt 0.3868 0.7108 0.0000
vt 0.3410 0.5499 0.0000
vt 0.3922 0.5047 0.0000
vt 0.4406 0.4620 0.0000
vt 0.4915 0.4171 0.0000
vt 0.5521 0.3636 0.0000
vt 0.6224 0.3015 0.0000
vt 0.6951 0.2373 0.0000
vt 0.7610 0.1791 0.0000
vt 0.8205 0.1266 0.0000
vt 0.8753 0.0782 0.0000
vt 0.0445 0.8118 0.0000
vt 0.0944 0.7677 0.0000
vt 0.1619 0.7081 0.0000
vt 0.2273 0.6503 0.0000
vt 0.2869 0.5977 0.0000
vt 0.3329 0.5407 0.0000
vt 0.3841 0.4955 0.0000
vt 0.4325 0.4528 0.0000
vt 0.4834 0.4079 0.0000
vt 0.5440 0.3544 0.0000
vt 0.6142 0.2923 0.0000
vt 0.6870 0.2281 0.0000
vt 0.7529 0.1699 0.0000
vt 0.8123 0.1174 0.0000
vt 0.8672 0.0690 0.0000
vt 0.0364 0.8026 0.0000
vt 0.0863 0.7585 0.0000
vt 0.1538 0.6989 0.0000
vt 0.2192 0.6411 0.0000
vt 0.2788 0.5885 0.0000
# 155 texture coords

g Mangun_Low
usemtl wire_086086086
s 1
f 1/1/1 2/2/2 3/3/3 4/4/4 
f 5/5/5 6/6/6 2/2/2 1/1/1 
f 7/7/7 8/8/8 6/6/6 5/5/5 
f 9/9/9 8/8/8 7/7/7 10/10/10 
f 11/11/11 9/9/9 10/10/10 12/12/12 
f 13/13/13 11/11/11 12/12/12 14/14/14 
f 15/15/15 13/13/13 14/14/14 16/16/16 
f 17/17/17 15/15/15 16/16/16 18/18/18 
f 19/19/19 17/17/17 18/18/18 20/20/20 
f 21/21/21 22/22/22 19/19/19 20/20/20 
f 23/23/23 24/24/24 22/25/22 21/26/21 
f 4/4/4 3/3/3 24/24/24 23/23/23 
f 25/27/25 3/3/3 2/2/2 26/28/26 
f 26/28/26 2/2/2 6/6/6 27/29/27 
f 27/29/27 6/6/6 8/8/8 28/30/28 
f 29/31/29 28/30/28 8/8/8 9/9/9 
f 30/32/30 29/31/29 9/9/9 11/11/11 
f 31/33/31 30/32/30 11/11/11 13/13/13 
f 32/34/32 31/33/31 13/13/13 15/15/15 
f 33/35/33 32/34/32 15/15/15 17/17/17 
f 34/36/34 33/35/33 17/17/17 19/19/19 
f 34/36/34 19/19/19 22/22/22 35/37/35 
f 35/38/35 22/25/22 24/24/24 36/39/36 
f 36/39/36 24/24/24 3/3/3 25/27/25 
f 25/27/25 26/28/26 37/40/37 38/41/38 
f 26/28/26 27/29/27 39/42/39 37/40/37 
f 27/29/27 28/30/28 40/43/40 39/42/39 
f 29/31/29 41/44/41 40/43/40 28/30/28 
f 30/32/30 42/45/42 41/44/41 29/31/29 
f 31/33/31 43/46/43 42/45/42 30/32/30 
f 31/33/31 32/34/32 44/47/44 43/46/43 
f 32/34/32 33/35/33 45/48/45 44/47/44 
f 33/35/33 34/36/34 46/49/46 45/48/45 
f 35/37/35 47/50/47 46/49/46 34/36/34 
f 36/39/36 48/51/48 47/52/47 35/38/35 
f 25/27/25 38/41/38 48/51/48 36/39/36 
f 4/4/4 49/53/49 50/54/50 1/1/1 
f 1/1/1 50/54/50 51/55/51 5/5/5 
f 5/5/5 51/55/51 52/56/52 7/7/7 
f 10/10/10 7/7/7 52/56/52 53/57/53 
f 12/12/12 10/10/10 53/57/53 54/58/54 
f 14/14/14 12/12/12 54/58/54 55/59/55 
f 14/14/14 55/59/55 56/60/56 16/16/16 
f 16/16/16 56/60/56 57/61/57 18/18/18 
f 18/18/18 57/61/57 58/62/58 20/20/20 
f 21/21/21 20/20/20 58/62/58 59/63/59 
f 23/23/23 21/26/21 59/64/59 60/65/60 
f 4/4/4 23/23/23 60/65/60 49/53/49 
f 37/40/37 61/40/61 62/41/62 38/41/38 
f 39/42/39 63/42/63 61/40/61 37/40/37 
f 40/43/40 64/43/64 63/42/63 39/42/39 
f 40/43/40 41/44/41 65/44/65 64/43/64 
f 41/44/41 42/45/42 66/45/66 65/44/65 
f 42/45/42 43/46/43 67/46/67 66/45/66 
f 43/46/43 44/47/44 68/47/68 67/46/67 
f 44/47/44 45/48/45 69/48/69 68/47/68 
f 45/48/45 46/49/46 70/49/70 69/48/69 
f 47/50/47 71/50/71 70/49/70 46/49/46 
f 48/51/48 72/51/72 71/52/71 47/52/47 
f 38/41/38 62/41/62 72/51/72 48/51/48 
f 49/53/49 73/53/73 74/54/74 50/54/50 
f 50/54/50 74/54/74 75/55/75 51/55/51 
f 51/55/51 75/55/75 76/56/76 52/56/52 
f 53/57/53 52/56/52 76/56/76 77/57/77 
f 54/58/54 53/57/53 77/57/77 78/58/78 
f 55/59/55 54/58/54 78/58/78 79/59/79 
f 56/60/56 55/59/55 79/59/79 80/60/80 
f 57/61/57 56/60/56 80/60/80 81/61/81 
f 58/62/58 57/61/57 81/61/81 82/62/82 
f 58/62/58 82/62/82 83/63/83 59/63/59 
f 59/64/59 83/64/83 84/65/84 60/65/60 
f 60/65/60 84/65/84 73/53/73 49/53/49 
f 85/66/85 86/67/86 87/68/87 88/69/88 
f 89/70/89 87/68/87 86/67/86 90/71/90 
f 89/70/89 90/71/90 91/72/91 92/73/92 
f 93/74/93 94/75/94 92/73/92 91/72/91 
f 95/76/95 96/77/96 94/75/94 93/74/93 
f 97/78/97 96/77/96 95/76/95 98/79/98 
f 99/80/99 97/78/97 98/79/98 100/81/100 
f 101/82/101 99/80/99 100/81/100 102/83/102 
f 103/84/103 104/85/104 101/82/101 102/83/102 
f 105/86/105 106/87/106 104/88/104 103/89/103 
f 107/90/107 108/91/108 106/87/106 105/86/105 
f 109/92/109 108/91/108 107/90/107 110/93/110 
f 111/94/111 109/92/109 110/93/110 112/95/112 
f 88/69/88 111/94/111 112/95/112 85/66/85 
f 88/69/88 87/68/87 113/96/113 114/97/114 
f 87/68/87 89/70/89 115/98/115 113/96/113 
f 92/73/92 116/99/116 115/98/115 89/70/89 
f 94/75/94 117/100/117 116/99/116 92/73/92 
f 96/77/96 118/101/118 117/100/117 94/75/94 
f 96/77/96 97/78/97 119/102/119 118/101/118 
f 97/78/97 99/80/99 120/103/120 119/102/119 
f 99/80/99 101/82/101 121/104/121 120/103/120 
f 101/82/101 104/85/104 122/105/122 121/104/121 
f 106/87/106 123/106/123 122/107/122 104/88/104 
f 108/91/108 124/108/124 123/106/123 106/87/106 
f 109/92/109 125/109/125 124/108/124 108/91/108 
f 111/94/111 126/110/126 125/109/125 109/92/109 
f 111/94/111 88/69/88 114/97/114 126/110/126 
f 114/97/114 113/96/113 127/111/127 128/112/128 
f 115/98/115 129/113/129 127/111/127 113/96/113 
f 116/99/116 130/114/130 129/113/129 115/98/115 
f 117/100/117 131/115/131 130/114/130 116/99/116 
f 118/101/118 132/116/132 131/115/131 117/100/117 
f 119/102/119 133/117/133 132/116/132 118/101/118 
f 120/103/120 134/118/134 133/117/133 119/102/119 
f 121/104/121 135/119/135 134/118/134 120/103/120 
f 122/105/122 136/120/136 135/119/135 121/104/121 
f 122/107/122 123/106/123 137/121/137 136/122/136 
f 123/106/123 124/108/124 138/123/138 137/121/137 
f 124/108/124 125/109/125 139/124/139 138/123/138 
f 125/109/125 126/110/126 140/125/140 139/124/139 
f 126/110/126 114/97/114 128/112/128 140/125/140 
f 85/66/85 141/126/141 142/127/142 86/67/86 
f 86/67/86 142/127/142 143/128/143 90/71/90 
f 91/72/91 90/71/90 143/128/143 144/129/144 
f 93/74/93 91/72/91 144/129/144 145/130/145 
f 95/76/95 93/74/93 145/130/145 146/131/146 
f 95/76/95 146/131/146 147/132/147 98/79/98 
f 98/79/98 147/132/147 148/133/148 100/81/100 
f 100/81/100 148/133/148 149/134/149 102/83/102 
f 102/83/102 149/134/149 150/135/150 103/84/103 
f 105/86/105 103/89/103 150/136/150 151/137/151 
f 107/90/107 105/86/105 151/137/151 152/138/152 
f 110/93/110 107/90/107 152/138/152 153/139/153 
f 112/95/112 110/93/110 153/139/153 154/140/154 
f 112/95/112 154/140/154 141/126/141 85/66/85 
f 142/127/142 141/126/141 155/141/155 156/142/156 
f 143/128/143 142/127/142 156/142/156 157/143/157 
f 157/143/157 158/144/158 144/129/144 143/128/143 
f 144/129/144 158/144/158 159/145/159 145/130/145 
f 145/130/145 159/145/159 160/146/160 146/131/146 
f 146/131/146 160/146/160 161/147/161 147/132/147 
f 147/132/147 161/147/161 162/148/162 148/133/148 
f 148/133/148 162/148/162 163/149/163 149/134/149 
f 149/134/149 163/149/163 164/150/164 150/135/150 
f 151/137/151 150/136/150 164/151/164 165/152/137 
f 152/138/152 151/137/151 165/152/137 166/153/165 
f 153/139/153 152/138/152 166/153/165 167/154/166 
f 154/140/154 153/139/153 167/154/166 168/155/167 
f 141/126/141 154/140/154 168/155/167 155/141/155 
# 142 polygons

